<svg xmlns="http://www.w3.org/2000/svg" viewBox="-320 -320 640 640">
  <rect x="-320" y="-320" width="640" height="640" fill="#000000"/>
  <defs>
    <clipPath id="annulusClip">
      <path fill-rule="evenodd" d="
        M 0,0
        m -260,0
        a 260,260 0 1,0 520,0
        a 260,260 0 1,0 -520,0
        M 0,0
        m -170,0
        a 170,170 0 1,0 340,0
        a 170,170 0 1,0 -340,0
      "/>
    </clipPath>
    <line id="div52"  x1="170" y1="0" x2="200" y2="0"/>
    <line id="div104" x1="200" y1="0" x2="230" y2="0"/>
    <line id="div156" x1="230" y1="0" x2="260" y2="0"/>
  </defs>
  <g fill="none" stroke-linecap="butt" stroke-width="2">
    <circle cx="0" cy="0" r="170" stroke="#B0E0E6"/>
    <circle cx="0" cy="0" r="200" stroke="#B0E0E6"/>
    <circle cx="0" cy="0" r="230" stroke="#ffffff"/>
    <circle cx="0" cy="0" r="260" stroke="#ffffff"/>
  </g>
  <g clip-path="url(#annulusClip)" fill="none" stroke-linecap="butt" stroke-width="2">
    <!-- Ring 1: 52 chambers (powder blue) -->
<g stroke="#B0E0E6">
<use href="#div52" transform="rotate(0.000000000000)"/>
<use href="#div52" transform="rotate(6.923076923077)"/>
<use href="#div52" transform="rotate(13.846153846154)"/>
<use href="#div52" transform="rotate(20.769230769231)"/>
<use href="#div52" transform="rotate(27.692307692308)"/>
<use href="#div52" transform="rotate(34.615384615385)"/>
<use href="#div52" transform="rotate(41.538461538462)"/>
<use href="#div52" transform="rotate(48.461538461538)"/>
<use href="#div52" transform="rotate(55.384615384615)"/>
<use href="#div52" transform="rotate(62.307692307692)"/>
<use href="#div52" transform="rotate(69.230769230769)"/>
<use href="#div52" transform="rotate(76.153846153846)"/>
<use href="#div52" transform="rotate(83.076923076923)"/>
<use href="#div52" transform="rotate(90.000000000000)"/>
<use href="#div52" transform="rotate(96.923076923077)"/>
<use href="#div52" transform="rotate(103.846153846154)"/>
<use href="#div52" transform="rotate(110.769230769231)"/>
<use href="#div52" transform="rotate(117.692307692308)"/>
<use href="#div52" transform="rotate(124.615384615385)"/>
<use href="#div52" transform="rotate(131.538461538462)"/>
<use href="#div52" transform="rotate(138.461538461538)"/>
<use href="#div52" transform="rotate(145.384615384615)"/>
<use href="#div52" transform="rotate(152.307692307692)"/>
<use href="#div52" transform="rotate(159.230769230769)"/>
<use href="#div52" transform="rotate(166.153846153846)"/>
<use href="#div52" transform="rotate(173.076923076923)"/>
<use href="#div52" transform="rotate(180.000000000000)"/>
<use href="#div52" transform="rotate(186.923076923077)"/>
<use href="#div52" transform="rotate(193.846153846154)"/>
<use href="#div52" transform="rotate(200.769230769231)"/>
<use href="#div52" transform="rotate(207.692307692308)"/>
<use href="#div52" transform="rotate(214.615384615385)"/>
<use href="#div52" transform="rotate(221.538461538462)"/>
<use href="#div52" transform="rotate(228.461538461538)"/>
<use href="#div52" transform="rotate(235.384615384615)"/>
<use href="#div52" transform="rotate(242.307692307692)"/>
<use href="#div52" transform="rotate(249.230769230769)"/>
<use href="#div52" transform="rotate(256.153846153846)"/>
<use href="#div52" transform="rotate(263.076923076923)"/>
<use href="#div52" transform="rotate(270.000000000000)"/>
<use href="#div52" transform="rotate(276.923076923077)"/>
<use href="#div52" transform="rotate(283.846153846154)"/>
<use href="#div52" transform="rotate(290.769230769231)"/>
<use href="#div52" transform="rotate(297.692307692308)"/>
<use href="#div52" transform="rotate(304.615384615385)"/>
<use href="#div52" transform="rotate(311.538461538462)"/>
<use href="#div52" transform="rotate(318.461538461538)"/>
<use href="#div52" transform="rotate(325.384615384615)"/>
<use href="#div52" transform="rotate(332.307692307692)"/>
<use href="#div52" transform="rotate(339.230769230769)"/>
<use href="#div52" transform="rotate(346.153846153846)"/>
<use href="#div52" transform="rotate(353.076923076923)"/>
</g>
    <!-- Ring 2: 104 chambers (orange) + red markers at 0° and 180° -->
<g stroke="#ff9900">
<use href="#div104" transform="rotate(0.000000000000)"/>
<use href="#div104" transform="rotate(3.461538461538)"/>
<use href="#div104" transform="rotate(6.923076923077)"/>
<use href="#div104" transform="rotate(10.384615384615)"/>
<use href="#div104" transform="rotate(13.846153846154)"/>
<use href="#div104" transform="rotate(17.307692307692)"/>
<use href="#div104" transform="rotate(20.769230769231)"/>
<use href="#div104" transform="rotate(24.230769230769)"/>
<use href="#div104" transform="rotate(27.692307692308)"/>
<use href="#div104" transform="rotate(31.153846153846)"/>
<use href="#div104" transform="rotate(34.615384615385)"/>
<use href="#div104" transform="rotate(38.076923076923)"/>
<use href="#div104" transform="rotate(41.538461538462)"/>
<use href="#div104" transform="rotate(45.000000000000)"/>
<use href="#div104" transform="rotate(48.461538461538)"/>
<use href="#div104" transform="rotate(51.923076923077)"/>
<use href="#div104" transform="rotate(55.384615384615)"/>
<use href="#div104" transform="rotate(58.846153846154)"/>
<use href="#div104" transform="rotate(62.307692307692)"/>
<use href="#div104" transform="rotate(65.769230769231)"/>
<use href="#div104" transform="rotate(69.230769230769)"/>
<use href="#div104" transform="rotate(72.692307692308)"/>
<use href="#div104" transform="rotate(76.153846153846)"/>
<use href="#div104" transform="rotate(79.615384615385)"/>
<use href="#div104" transform="rotate(83.076923076923)"/>
<use href="#div104" transform="rotate(86.538461538462)"/>
<use href="#div104" transform="rotate(90.000000000000)"/>
<use href="#div104" transform="rotate(93.461538461538)"/>
<use href="#div104" transform="rotate(96.923076923077)"/>
<use href="#div104" transform="rotate(100.384615384615)"/>
<use href="#div104" transform="rotate(103.846153846154)"/>
<use href="#div104" transform="rotate(107.307692307692)"/>
<use href="#div104" transform="rotate(110.769230769231)"/>
<use href="#div104" transform="rotate(114.230769230769)"/>
<use href="#div104" transform="rotate(117.692307692308)"/>
<use href="#div104" transform="rotate(121.153846153846)"/>
<use href="#div104" transform="rotate(124.615384615385)"/>
<use href="#div104" transform="rotate(128.076923076923)"/>
<use href="#div104" transform="rotate(131.538461538462)"/>
<use href="#div104" transform="rotate(135.000000000000)"/>
<use href="#div104" transform="rotate(138.461538461538)"/>
<use href="#div104" transform="rotate(141.923076923077)"/>
<use href="#div104" transform="rotate(145.384615384615)"/>
<use href="#div104" transform="rotate(148.846153846154)"/>
<use href="#div104" transform="rotate(152.307692307692)"/>
<use href="#div104" transform="rotate(155.769230769231)"/>
<use href="#div104" transform="rotate(159.230769230769)"/>
<use href="#div104" transform="rotate(162.692307692308)"/>
<use href="#div104" transform="rotate(166.153846153846)"/>
<use href="#div104" transform="rotate(169.615384615385)"/>
<use href="#div104" transform="rotate(173.076923076923)"/>
<use href="#div104" transform="rotate(176.538461538462)"/>
<use href="#div104" transform="rotate(180.000000000000)"/>
<use href="#div104" transform="rotate(183.461538461538)"/>
<use href="#div104" transform="rotate(186.923076923077)"/>
<use href="#div104" transform="rotate(190.384615384615)"/>
<use href="#div104" transform="rotate(193.846153846154)"/>
<use href="#div104" transform="rotate(197.307692307692)"/>
<use href="#div104" transform="rotate(200.769230769231)"/>
<use href="#div104" transform="rotate(204.230769230769)"/>
<use href="#div104" transform="rotate(207.692307692308)"/>
<use href="#div104" transform="rotate(211.153846153846)"/>
<use href="#div104" transform="rotate(214.615384615385)"/>
<use href="#div104" transform="rotate(218.076923076923)"/>
<use href="#div104" transform="rotate(221.538461538462)"/>
<use href="#div104" transform="rotate(225.000000000000)"/>
<use href="#div104" transform="rotate(228.461538461538)"/>
<use href="#div104" transform="rotate(231.923076923077)"/>
<use href="#div104" transform="rotate(235.384615384615)"/>
<use href="#div104" transform="rotate(238.846153846154)"/>
<use href="#div104" transform="rotate(242.307692307692)"/>
<use href="#div104" transform="rotate(245.769230769231)"/>
<use href="#div104" transform="rotate(249.230769230769)"/>
<use href="#div104" transform="rotate(252.692307692308)"/>
<use href="#div104" transform="rotate(256.153846153846)"/>
<use href="#div104" transform="rotate(259.615384615385)"/>
<use href="#div104" transform="rotate(263.076923076923)"/>
<use href="#div104" transform="rotate(266.538461538462)"/>
<use href="#div104" transform="rotate(270.000000000000)"/>
<use href="#div104" transform="rotate(273.461538461538)"/>
<use href="#div104" transform="rotate(276.923076923077)"/>
<use href="#div104" transform="rotate(280.384615384615)"/>
<use href="#div104" transform="rotate(283.846153846154)"/>
<use href="#div104" transform="rotate(287.307692307692)"/>
<use href="#div104" transform="rotate(290.769230769231)"/>
<use href="#div104" transform="rotate(294.230769230769)"/>
<use href="#div104" transform="rotate(297.692307692308)"/>
<use href="#div104" transform="rotate(301.153846153846)"/>
<use href="#div104" transform="rotate(304.615384615385)"/>
<use href="#div104" transform="rotate(308.076923076923)"/>
<use href="#div104" transform="rotate(311.538461538462)"/>
<use href="#div104" transform="rotate(315.000000000000)"/>
<use href="#div104" transform="rotate(318.461538461538)"/>
<use href="#div104" transform="rotate(321.923076923077)"/>
<use href="#div104" transform="rotate(325.384615384615)"/>
<use href="#div104" transform="rotate(328.846153846154)"/>
<use href="#div104" transform="rotate(332.307692307692)"/>
<use href="#div104" transform="rotate(335.769230769231)"/>
<use href="#div104" transform="rotate(339.230769230769)"/>
<use href="#div104" transform="rotate(342.692307692308)"/>
<use href="#div104" transform="rotate(346.153846153846)"/>
<use href="#div104" transform="rotate(349.615384615385)"/>
<use href="#div104" transform="rotate(353.076923076923)"/>
<use href="#div104" transform="rotate(356.538461538462)"/>
</g>
    <g stroke="#ff0000">
<use href="#div104" transform="rotate(0.000000000000)"/>
<use href="#div104" transform="rotate(180.000000000000)"/>
    </g>
    <!-- Ring 3: 156 chambers (orange) + red markers every 52 (0°, 120°, 240°) -->
<g stroke="#ff9900">
<use href="#div156" transform="rotate(0.000000000000)"/>
<use href="#div156" transform="rotate(2.307692307692)"/>
<use href="#div156" transform="rotate(4.615384615385)"/>
<use href="#div156" transform="rotate(6.923076923077)"/>
<use href="#div156" transform="rotate(9.230769230769)"/>
<use href="#div156" transform="rotate(11.538461538462)"/>
<use href="#div156" transform="rotate(13.846153846154)"/>
<use href="#div156" transform="rotate(16.153846153846)"/>
<use href="#div156" transform="rotate(18.461538461538)"/>
<use href="#div156" transform="rotate(20.769230769231)"/>
<use href="#div156" transform="rotate(23.076923076923)"/>
<use href="#div156" transform="rotate(25.384615384615)"/>
<use href="#div156" transform="rotate(27.692307692308)"/>
<use href="#div156" transform="rotate(30.000000000000)"/>
<use href="#div156" transform="rotate(32.307692307692)"/>
<use href="#div156" transform="rotate(34.615384615385)"/>
<use href="#div156" transform="rotate(36.923076923077)"/>
<use href="#div156" transform="rotate(39.230769230769)"/>
<use href="#div156" transform="rotate(41.538461538462)"/>
<use href="#div156" transform="rotate(43.846153846154)"/>
<use href="#div156" transform="rotate(46.153846153846)"/>
<use href="#div156" transform="rotate(48.461538461538)"/>
<use href="#div156" transform="rotate(50.769230769231)"/>
<use href="#div156" transform="rotate(53.076923076923)"/>
<use href="#div156" transform="rotate(55.384615384615)"/>
<use href="#div156" transform="rotate(57.692307692308)"/>
<use href="#div156" transform="rotate(60.000000000000)"/>
<use href="#div156" transform="rotate(62.307692307692)"/>
<use href="#div156" transform="rotate(64.615384615385)"/>
<use href="#div156" transform="rotate(66.923076923077)"/>
<use href="#div156" transform="rotate(69.230769230769)"/>
<use href="#div156" transform="rotate(71.538461538462)"/>
<use href="#div156" transform="rotate(73.846153846154)"/>
<use href="#div156" transform="rotate(76.153846153846)"/>
<use href="#div156" transform="rotate(78.461538461538)"/>
<use href="#div156" transform="rotate(80.769230769231)"/>
<use href="#div156" transform="rotate(83.076923076923)"/>
<use href="#div156" transform="rotate(85.384615384615)"/>
<use href="#div156" transform="rotate(87.692307692308)"/>
<use href="#div156" transform="rotate(90.000000000000)"/>
<use href="#div156" transform="rotate(92.307692307692)"/>
<use href="#div156" transform="rotate(94.615384615385)"/>
<use href="#div156" transform="rotate(96.923076923077)"/>
<use href="#div156" transform="rotate(99.230769230769)"/>
<use href="#div156" transform="rotate(101.538461538462)"/>
<use href="#div156" transform="rotate(103.846153846154)"/>
<use href="#div156" transform="rotate(106.153846153846)"/>
<use href="#div156" transform="rotate(108.461538461538)"/>
<use href="#div156" transform="rotate(110.769230769231)"/>
<use href="#div156" transform="rotate(113.076923076923)"/>
<use href="#div156" transform="rotate(115.384615384615)"/>
<use href="#div156" transform="rotate(117.692307692308)"/>
<use href="#div156" transform="rotate(120.000000000000)"/>
<use href="#div156" transform="rotate(122.307692307692)"/>
<use href="#div156" transform="rotate(124.615384615385)"/>
<use href="#div156" transform="rotate(126.923076923077)"/>
<use href="#div156" transform="rotate(129.230769230769)"/>
<use href="#div156" transform="rotate(131.538461538462)"/>
<use href="#div156" transform="rotate(133.846153846154)"/>
<use href="#div156" transform="rotate(136.153846153846)"/>
<use href="#div156" transform="rotate(138.461538461538)"/>
<use href="#div156" transform="rotate(140.769230769231)"/>
<use href="#div156" transform="rotate(143.076923076923)"/>
<use href="#div156" transform="rotate(145.384615384615)"/>
<use href="#div156" transform="rotate(147.692307692308)"/>
<use href="#div156" transform="rotate(150.000000000000)"/>
<use href="#div156" transform="rotate(152.307692307692)"/>
<use href="#div156" transform="rotate(154.615384615385)"/>
<use href="#div156" transform="rotate(156.923076923077)"/>
<use href="#div156" transform="rotate(159.230769230769)"/>
<use href="#div156" transform="rotate(161.538461538462)"/>
<use href="#div156" transform="rotate(163.846153846154)"/>
<use href="#div156" transform="rotate(166.153846153846)"/>
<use href="#div156" transform="rotate(168.461538461538)"/>
<use href="#div156" transform="rotate(170.769230769231)"/>
<use href="#div156" transform="rotate(173.076923076923)"/>
<use href="#div156" transform="rotate(175.384615384615)"/>
<use href="#div156" transform="rotate(177.692307692308)"/>
<use href="#div156" transform="rotate(180.000000000000)"/>
<use href="#div156" transform="rotate(182.307692307692)"/>
<use href="#div156" transform="rotate(184.615384615385)"/>
<use href="#div156" transform="rotate(186.923076923077)"/>
<use href="#div156" transform="rotate(189.230769230769)"/>
<use href="#div156" transform="rotate(191.538461538462)"/>
<use href="#div156" transform="rotate(193.846153846154)"/>
<use href="#div156" transform="rotate(196.153846153846)"/>
<use href="#div156" transform="rotate(198.461538461538)"/>
<use href="#div156" transform="rotate(200.769230769231)"/>
<use href="#div156" transform="rotate(203.076923076923)"/>
<use href="#div156" transform="rotate(205.384615384615)"/>
<use href="#div156" transform="rotate(207.692307692308)"/>
<use href="#div156" transform="rotate(210.000000000000)"/>
<use href="#div156" transform="rotate(212.307692307692)"/>
<use href="#div156" transform="rotate(214.615384615385)"/>
<use href="#div156" transform="rotate(216.923076923077)"/>
<use href="#div156" transform="rotate(219.230769230769)"/>
<use href="#div156" transform="rotate(221.538461538462)"/>
<use href="#div156" transform="rotate(223.846153846154)"/>
<use href="#div156" transform="rotate(226.153846153846)"/>
<use href="#div156" transform="rotate(228.461538461538)"/>
<use href="#div156" transform="rotate(230.769230769231)"/>
<use href="#div156" transform="rotate(233.076923076923)"/>
<use href="#div156" transform="rotate(235.384615384615)"/>
<use href="#div156" transform="rotate(237.692307692308)"/>
<use href="#div156" transform="rotate(240.000000000000)"/>
<use href="#div156" transform="rotate(242.307692307692)"/>
<use href="#div156" transform="rotate(244.615384615385)"/>
<use href="#div156" transform="rotate(246.923076923077)"/>
<use href="#div156" transform="rotate(249.230769230769)"/>
<use href="#div156" transform="rotate(251.538461538462)"/>
<use href="#div156" transform="rotate(253.846153846154)"/>
<use href="#div156" transform="rotate(256.153846153846)"/>
<use href="#div156" transform="rotate(258.461538461538)"/>
<use href="#div156" transform="rotate(260.769230769231)"/>
<use href="#div156" transform="rotate(263.076923076923)"/>
<use href="#div156" transform="rotate(265.384615384615)"/>
<use href="#div156" transform="rotate(267.692307692308)"/>
<use href="#div156" transform="rotate(270.000000000000)"/>
<use href="#div156" transform="rotate(272.307692307692)"/>
<use href="#div156" transform="rotate(274.615384615385)"/>
<use href="#div156" transform="rotate(276.923076923077)"/>
<use href="#div156" transform="rotate(279.230769230769)"/>
<use href="#div156" transform="rotate(281.538461538461)"/>
<use href="#div156" transform="rotate(283.846153846154)"/>
<use href="#div156" transform="rotate(286.153846153846)"/>
<use href="#div156" transform="rotate(288.461538461538)"/>
<use href="#div156" transform="rotate(290.769230769231)"/>
<use href="#div156" transform="rotate(293.076923076923)"/>
<use href="#div156" transform="rotate(295.384615384615)"/>
<use href="#div156" transform="rotate(297.692307692308)"/>
<use href="#div156" transform="rotate(300.000000000000)"/>
<use href="#div156" transform="rotate(302.307692307692)"/>
<use href="#div156" transform="rotate(304.615384615385)"/>
<use href="#div156" transform="rotate(306.923076923077)"/>
<use href="#div156" transform="rotate(309.230769230769)"/>
<use href="#div156" transform="rotate(311.538461538461)"/>
<use href="#div156" transform="rotate(313.846153846154)"/>
<use href="#div156" transform="rotate(316.153846153846)"/>
<use href="#div156" transform="rotate(318.461538461538)"/>
<use href="#div156" transform="rotate(320.769230769231)"/>
<use href="#div156" transform="rotate(323.076923076923)"/>
<use href="#div156" transform="rotate(325.384615384615)"/>
<use href="#div156" transform="rotate(327.692307692308)"/>
<use href="#div156" transform="rotate(330.000000000000)"/>
<use href="#div156" transform="rotate(332.307692307692)"/>
<use href="#div156" transform="rotate(334.615384615385)"/>
<use href="#div156" transform="rotate(336.923076923077)"/>
<use href="#div156" transform="rotate(339.230769230769)"/>
<use href="#div156" transform="rotate(341.538461538461)"/>
<use href="#div156" transform="rotate(343.846153846154)"/>
<use href="#div156" transform="rotate(346.153846153846)"/>
<use href="#div156" transform="rotate(348.461538461538)"/>
<use href="#div156" transform="rotate(350.769230769231)"/>
<use href="#div156" transform="rotate(353.076923076923)"/>
<use href="#div156" transform="rotate(355.384615384615)"/>
<use href="#div156" transform="rotate(357.692307692308)"/>
</g>
    <g stroke="#ff0000">
<use href="#div156" transform="rotate(0.000000000000)"/>
<use href="#div156" transform="rotate(120.000000000000)"/>
<use href="#div156" transform="rotate(240.000000000000)"/>
    </g>
  </g>
</svg>